<svg width="44" height="44" viewBox="0 0 44 44" fill="none" xmlns="http://www.w3.org/2000/svg">
<g clip-path="url(#clip0_148_3156)">
<path d="M37.5547 6.44527C33.5755 2.46266 28.0764 0 22 0C15.9236 0 10.4245 2.46266 6.44186 6.44527C2.46266 10.4245 0 15.9236 0 22C0 34.1494 9.84723 44 22 44C28.0764 44 33.5755 41.5373 37.5547 37.5547C41.5373 33.5755 44 28.0764 44 22C44 15.9236 41.5373 10.4245 37.5547 6.44527ZM16.3984 31.6867H11.8795V17.1532H16.3984V31.6867ZM14.1099 15.3703C12.6822 15.3703 11.7292 14.3593 11.76 13.1091C11.7292 11.801 12.6822 10.8207 14.1372 10.8207C15.5923 10.8207 16.5145 11.801 16.5453 13.1091C16.5453 14.3593 15.5957 15.3703 14.1099 15.3703ZM33.8146 31.6867H29.2958V23.6327C29.2958 21.7609 28.6434 20.48 27.0073 20.48C25.7606 20.48 25.016 21.3442 24.7188 22.1742C24.5993 22.444 24.5412 22.8881 24.5412 23.3048V31.6867H20.0224V21.7882C20.0224 19.9745 19.9643 18.4307 19.9028 17.1532H23.8274L24.0357 19.1445H24.1245C24.7188 18.2223 26.2046 16.8253 28.6126 16.8253C31.5876 16.8253 33.8146 18.7859 33.8146 23.0691V31.6867Z" fill="white"/>
</g>
<defs>
<clipPath id="clip0_148_3156">
<rect width="44" height="44" fill="white"/>
</clipPath>
</defs>
</svg>
