<svg width="166" height="56" viewBox="0 0 166 56" fill="none" xmlns="http://www.w3.org/2000/svg">
<path d="M17.797 42.37C15.873 42.37 14.097 42.185 12.469 41.815C10.841 41.445 9.34867 40.9023 7.992 40.187C6.66 39.4717 5.439 38.6083 4.329 37.597L6.993 33.638C8.74433 35.2167 10.5203 36.376 12.321 37.116C14.1217 37.8313 16.0087 38.189 17.982 38.189C19.1167 38.189 20.2143 38.0657 21.275 37.819C22.3603 37.5477 23.2607 37.1407 23.976 36.598C24.6913 36.0553 25.049 35.34 25.049 34.452C25.049 33.9093 24.864 33.4653 24.494 33.12C24.124 32.75 23.6307 32.454 23.014 32.232C22.3973 32.01 21.719 31.8373 20.979 31.714C20.239 31.566 19.499 31.455 18.759 31.381C18.019 31.307 17.353 31.2453 16.761 31.196C15.0837 30.9987 13.5543 30.715 12.173 30.345C10.8163 29.9503 9.657 29.4447 8.695 28.828C7.733 28.2113 6.993 27.4713 6.475 26.608C5.957 25.72 5.698 24.6963 5.698 23.537C5.698 22.279 5.994 21.169 6.586 20.207C7.20267 19.2203 8.05367 18.394 9.139 17.728C10.249 17.062 11.5193 16.5563 12.95 16.211C14.4053 15.841 15.9717 15.656 17.649 15.656C19.425 15.656 21.0407 15.8287 22.496 16.174C23.9513 16.5193 25.2463 17.0127 26.381 17.654C27.5157 18.2707 28.453 19.023 29.193 19.911L26.381 23.352C25.6657 22.5873 24.8393 21.946 23.902 21.428C22.9647 20.91 21.9533 20.5277 20.868 20.281C19.7827 20.0097 18.6603 19.874 17.501 19.874C16.243 19.874 15.1083 19.9973 14.097 20.244C13.1103 20.4907 12.321 20.8483 11.729 21.317C11.1617 21.7857 10.878 22.3777 10.878 23.093C10.878 23.685 11.0753 24.1907 11.47 24.61C11.8893 25.0293 12.4443 25.3747 13.135 25.646C13.8257 25.9173 14.6273 26.1393 15.54 26.312C16.4773 26.46 17.464 26.5957 18.5 26.719C19.98 26.8917 21.423 27.1137 22.829 27.385C24.235 27.6317 25.493 28.0017 26.603 28.495C27.713 28.9883 28.5887 29.6667 29.23 30.53C29.896 31.3687 30.229 32.491 30.229 33.897C30.229 35.6237 29.6987 37.1283 28.638 38.411C27.602 39.669 26.1467 40.6433 24.272 41.334C22.422 42.0247 20.2637 42.37 17.797 42.37ZM37.8308 42L50.5588 16.1H55.6648L68.3188 42H63.1758L54.8508 25.054C54.6041 24.5607 54.3698 24.092 54.1478 23.648C53.9258 23.1793 53.7161 22.723 53.5188 22.279C53.3214 21.8103 53.1241 21.3417 52.9268 20.873C52.7294 20.3797 52.5444 19.8617 52.3718 19.319L53.6298 19.282C53.4324 19.8493 53.2351 20.392 53.0378 20.91C52.8404 21.4033 52.6308 21.8843 52.4088 22.353C52.1868 22.8217 51.9648 23.2903 51.7428 23.759C51.5208 24.203 51.2988 24.6717 51.0768 25.165L42.7888 42H37.8308ZM43.4918 36.45L45.2678 32.269H60.6598L61.3628 36.45H43.4918ZM77.9844 42V16.1H82.5354L94.3384 30.715H92.1554L103.958 16.1H108.509V42H103.736V31.899C103.736 29.8517 103.786 27.9277 103.884 26.127C103.983 24.3263 104.18 22.4887 104.476 20.614L104.957 22.353L94.4494 34.97H92.0074L81.4994 22.316L82.0174 20.614C82.3134 22.4887 82.5108 24.3263 82.6094 26.127C82.7081 27.9277 82.7574 29.8517 82.7574 31.899V42H77.9844ZM135.655 42.37C133.336 42.37 131.203 42.037 129.254 41.371C127.33 40.6803 125.653 39.7307 124.222 38.522C122.791 37.2887 121.681 35.8703 120.892 34.267C120.127 32.639 119.745 30.8877 119.745 29.013C119.745 27.1383 120.127 25.3993 120.892 23.796C121.681 22.168 122.791 20.7497 124.222 19.541C125.653 18.3077 127.33 17.358 129.254 16.692C131.203 16.0013 133.336 15.656 135.655 15.656C137.974 15.656 140.095 16.0013 142.019 16.692C143.968 17.358 145.645 18.3077 147.051 19.541C148.482 20.7497 149.592 22.168 150.381 23.796C151.17 25.3993 151.565 27.1383 151.565 29.013C151.565 30.8877 151.17 32.639 150.381 34.267C149.592 35.8703 148.482 37.2887 147.051 38.522C145.645 39.7307 143.968 40.6803 142.019 41.371C140.095 42.037 137.974 42.37 135.655 42.37ZM135.655 37.782C137.283 37.782 138.763 37.56 140.095 37.116C141.427 36.672 142.586 36.0553 143.573 35.266C144.56 34.452 145.324 33.5147 145.867 32.454C146.41 31.3933 146.681 30.2463 146.681 29.013C146.681 27.7797 146.41 26.6327 145.867 25.572C145.324 24.5113 144.56 23.5863 143.573 22.797C142.586 21.983 141.427 21.354 140.095 20.91C138.763 20.466 137.283 20.244 135.655 20.244C134.052 20.244 132.572 20.466 131.215 20.91C129.858 21.354 128.687 21.983 127.7 22.797C126.738 23.5863 125.986 24.5113 125.443 25.572C124.925 26.6327 124.666 27.7797 124.666 29.013C124.666 30.2463 124.925 31.3933 125.443 32.454C125.986 33.5147 126.738 34.452 127.7 35.266C128.687 36.0553 129.858 36.672 131.215 37.116C132.572 37.56 134.052 37.782 135.655 37.782Z" fill="white"/>
<rect x="159" y="35" width="7" height="7" fill="white"/>
</svg>
