<svg width="44" height="44" viewBox="0 0 44 44" fill="none" xmlns="http://www.w3.org/2000/svg">
<path d="M37.5547 6.44527C33.5755 2.46266 28.073 0 22 0C15.927 0 10.4245 2.46266 6.44527 6.44527C2.46266 10.4245 0 15.9236 0 22C0 34.1494 9.85065 44 22 44C28.073 44 33.5755 41.5373 37.5547 37.5547C41.5373 33.5755 44 28.0764 44 22C44 15.9236 41.5373 10.4245 37.5547 6.44527ZM27.2396 13.9221H24.1723C23.8513 13.9221 23.6053 14.045 23.438 14.2909C23.2706 14.5335 23.1886 14.8511 23.1886 15.2439V16.9961H27.2396L26.676 20.9104H23.1886V34.1596H18.6049V20.9104H16.7639V16.9961H18.6049V15.565C18.6049 11.5892 20.0565 9.8404 24.0596 9.8404H27.2396V13.9221Z" fill="white"/>
</svg>
