<svg width="44" height="43" viewBox="0 0 44 43" fill="none" xmlns="http://www.w3.org/2000/svg">
<g clip-path="url(#clip0_148_3158)">
<path d="M26.5499 21.4211C26.5499 22.6416 26.041 23.7524 25.2144 24.5539C24.3912 25.3554 23.2538 25.8543 22.0003 25.8543C19.4898 25.8543 17.4473 23.8655 17.4473 21.4211C17.4473 18.9767 19.4898 16.9912 22.0003 16.9912C24.5108 16.9912 26.5499 18.9767 26.5499 21.4211Z" fill="white"/>
<path d="M27.5162 11.2277H16.4838C13.7513 11.2277 11.5277 13.3927 11.5277 16.05V26.7921C11.5277 29.4527 13.7513 31.6144 16.4838 31.6144H27.5162C30.2453 31.6144 32.4689 29.4527 32.4689 26.7921V16.05C32.4689 13.3927 30.2453 11.2277 27.5162 11.2277ZM22 27.8231C18.3726 27.8231 15.4249 24.9497 15.4249 21.4211C15.4249 17.8924 18.3726 15.019 22 15.019C25.6274 15.019 28.5716 17.8924 28.5716 21.4211C28.5716 24.9497 25.624 27.8231 22 27.8231ZM28.8483 15.7507C28.2847 15.7507 27.827 15.3017 27.827 14.753C27.827 14.2042 28.2847 13.7586 28.8483 13.7586C29.4119 13.7586 29.873 14.2042 29.873 14.753C29.873 15.3017 29.4153 15.7507 28.8483 15.7507ZM27.5162 11.2277H16.4838C13.7513 11.2277 11.5277 13.3927 11.5277 16.05V26.7921C11.5277 29.4527 13.7513 31.6144 16.4838 31.6144H27.5162C30.2453 31.6144 32.4689 29.4527 32.4689 26.7921V16.05C32.4689 13.3927 30.2453 11.2277 27.5162 11.2277ZM22 27.8231C18.3726 27.8231 15.4249 24.9497 15.4249 21.4211C15.4249 17.8924 18.3726 15.019 22 15.019C25.6274 15.019 28.5716 17.8924 28.5716 21.4211C28.5716 24.9497 25.624 27.8231 22 27.8231ZM28.8483 15.7507C28.2847 15.7507 27.827 15.3017 27.827 14.753C27.827 14.2042 28.2847 13.7586 28.8483 13.7586C29.4119 13.7586 29.873 14.2042 29.873 14.753C29.873 15.3017 29.4153 15.7507 28.8483 15.7507ZM27.5162 11.2277H16.4838C13.7513 11.2277 11.5277 13.3927 11.5277 16.05V26.7921C11.5277 29.4527 13.7513 31.6144 16.4838 31.6144H27.5162C30.2453 31.6144 32.4689 29.4527 32.4689 26.7921V16.05C32.4689 13.3927 30.2453 11.2277 27.5162 11.2277ZM22 27.8231C18.3726 27.8231 15.4249 24.9497 15.4249 21.4211C15.4249 17.8924 18.3726 15.019 22 15.019C25.6274 15.019 28.5716 17.8924 28.5716 21.4211C28.5716 24.9497 25.624 27.8231 22 27.8231ZM28.8483 15.7507C28.2847 15.7507 27.827 15.3017 27.827 14.753C27.827 14.2042 28.2847 13.7586 28.8483 13.7586C29.4119 13.7586 29.873 14.2042 29.873 14.753C29.873 15.3017 29.4153 15.7507 28.8483 15.7507ZM27.5162 11.2277H16.4838C13.7513 11.2277 11.5277 13.3927 11.5277 16.05V26.7921C11.5277 29.4527 13.7513 31.6144 16.4838 31.6144H27.5162C30.2453 31.6144 32.4689 29.4527 32.4689 26.7921V16.05C32.4689 13.3927 30.2453 11.2277 27.5162 11.2277ZM22 27.8231C18.3726 27.8231 15.4249 24.9497 15.4249 21.4211C15.4249 17.8924 18.3726 15.019 22 15.019C25.6274 15.019 28.5716 17.8924 28.5716 21.4211C28.5716 24.9497 25.624 27.8231 22 27.8231ZM28.8483 15.7507C28.2847 15.7507 27.827 15.3017 27.827 14.753C27.827 14.2042 28.2847 13.7586 28.8483 13.7586C29.4119 13.7586 29.873 14.2042 29.873 14.753C29.873 15.3017 29.4153 15.7507 28.8483 15.7507ZM37.5547 6.27566C33.5755 2.39785 28.0764 0 22 0C15.9236 0 10.4245 2.39785 6.44527 6.27566C2.46266 10.1501 0 15.5046 0 21.4211C0 33.2507 9.85065 42.8421 22 42.8421C28.0764 42.8421 33.5755 40.4442 37.5547 36.5664C41.5373 32.692 44 27.3375 44 21.4211C44 15.5046 41.5373 10.1501 37.5547 6.27566ZM34.4909 26.7921C34.4909 30.5369 31.3622 33.5866 27.5162 33.5866H16.4838C12.6378 33.5866 9.50567 30.5369 9.50567 26.7921V16.05C9.50567 12.3052 12.6378 9.25884 16.4838 9.25884H27.5162C31.3622 9.25884 34.4909 12.3052 34.4909 16.05V26.7921ZM27.5162 11.2277H16.4838C13.7513 11.2277 11.5277 13.3927 11.5277 16.05V26.7921C11.5277 29.4527 13.7513 31.6144 16.4838 31.6144H27.5162C30.2453 31.6144 32.4689 29.4527 32.4689 26.7921V16.05C32.4689 13.3927 30.2453 11.2277 27.5162 11.2277ZM22 27.8231C18.3726 27.8231 15.4249 24.9497 15.4249 21.4211C15.4249 17.8924 18.3726 15.019 22 15.019C25.6274 15.019 28.5716 17.8924 28.5716 21.4211C28.5716 24.9497 25.624 27.8231 22 27.8231ZM28.8483 15.7507C28.2847 15.7507 27.827 15.3017 27.827 14.753C27.827 14.2042 28.2847 13.7586 28.8483 13.7586C29.4119 13.7586 29.873 14.2042 29.873 14.753C29.873 15.3017 29.4153 15.7507 28.8483 15.7507ZM27.5162 11.2277H16.4838C13.7513 11.2277 11.5277 13.3927 11.5277 16.05V26.7921C11.5277 29.4527 13.7513 31.6144 16.4838 31.6144H27.5162C30.2453 31.6144 32.4689 29.4527 32.4689 26.7921V16.05C32.4689 13.3927 30.2453 11.2277 27.5162 11.2277ZM22 27.8231C18.3726 27.8231 15.4249 24.9497 15.4249 21.4211C15.4249 17.8924 18.3726 15.019 22 15.019C25.6274 15.019 28.5716 17.8924 28.5716 21.4211C28.5716 24.9497 25.624 27.8231 22 27.8231ZM28.8483 15.7507C28.2847 15.7507 27.827 15.3017 27.827 14.753C27.827 14.2042 28.2847 13.7586 28.8483 13.7586C29.4119 13.7586 29.873 14.2042 29.873 14.753C29.873 15.3017 29.4153 15.7507 28.8483 15.7507ZM27.5162 11.2277H16.4838C13.7513 11.2277 11.5277 13.3927 11.5277 16.05V26.7921C11.5277 29.4527 13.7513 31.6144 16.4838 31.6144H27.5162C30.2453 31.6144 32.4689 29.4527 32.4689 26.7921V16.05C32.4689 13.3927 30.2453 11.2277 27.5162 11.2277ZM22 27.8231C18.3726 27.8231 15.4249 24.9497 15.4249 21.4211C15.4249 17.8924 18.3726 15.019 22 15.019C25.6274 15.019 28.5716 17.8924 28.5716 21.4211C28.5716 24.9497 25.624 27.8231 22 27.8231ZM28.8483 15.7507C28.2847 15.7507 27.827 15.3017 27.827 14.753C27.827 14.2042 28.2847 13.7586 28.8483 13.7586C29.4119 13.7586 29.873 14.2042 29.873 14.753C29.873 15.3017 29.4153 15.7507 28.8483 15.7507ZM27.5162 11.2277H16.4838C13.7513 11.2277 11.5277 13.3927 11.5277 16.05V26.7921C11.5277 29.4527 13.7513 31.6144 16.4838 31.6144H27.5162C30.2453 31.6144 32.4689 29.4527 32.4689 26.7921V16.05C32.4689 13.3927 30.2453 11.2277 27.5162 11.2277ZM22 27.8231C18.3726 27.8231 15.4249 24.9497 15.4249 21.4211C15.4249 17.8924 18.3726 15.019 22 15.019C25.6274 15.019 28.5716 17.8924 28.5716 21.4211C28.5716 24.9497 25.624 27.8231 22 27.8231ZM28.8483 15.7507C28.2847 15.7507 27.827 15.3017 27.827 14.753C27.827 14.2042 28.2847 13.7586 28.8483 13.7586C29.4119 13.7586 29.873 14.2042 29.873 14.753C29.873 15.3017 29.4153 15.7507 28.8483 15.7507ZM27.5162 11.2277H16.4838C13.7513 11.2277 11.5277 13.3927 11.5277 16.05V26.7921C11.5277 29.4527 13.7513 31.6144 16.4838 31.6144H27.5162C30.2453 31.6144 32.4689 29.4527 32.4689 26.7921V16.05C32.4689 13.3927 30.2453 11.2277 27.5162 11.2277ZM22 27.8231C18.3726 27.8231 15.4249 24.9497 15.4249 21.4211C15.4249 17.8924 18.3726 15.019 22 15.019C25.6274 15.019 28.5716 17.8924 28.5716 21.4211C28.5716 24.9497 25.624 27.8231 22 27.8231ZM28.8483 15.7507C28.2847 15.7507 27.827 15.3017 27.827 14.753C27.827 14.2042 28.2847 13.7586 28.8483 13.7586C29.4119 13.7586 29.873 14.2042 29.873 14.753C29.873 15.3017 29.4153 15.7507 28.8483 15.7507Z" fill="white"/>
</g>
<defs>
<clipPath id="clip0_148_3158">
<rect width="44" height="42.8421" fill="white"/>
</clipPath>
</defs>
</svg>
