<svg width="44" height="46" viewBox="0 0 44 46" fill="none" xmlns="http://www.w3.org/2000/svg">
<g clip-path="url(#clip0_148_3161)">
<path d="M18.876 18.5967L26.4695 22.5789L18.876 26.5612V18.5967Z" fill="white"/>
<path d="M37.5576 6.61489C33.5747 2.52747 28.0751 0 21.9983 0C15.9214 0 10.4219 2.52747 6.44236 6.61489C2.46285 10.6988 0 16.3427 0 22.5789C0 35.048 9.84799 45.1579 21.9983 45.1579C28.0751 45.1579 33.5747 42.6304 37.5576 38.543C41.5371 34.4591 44 28.8152 44 22.5789C44 16.3427 41.5371 10.6988 37.5576 6.61489ZM34.012 27.7145L33.9402 28.3034C33.7011 30.27 32.0683 31.7493 30.1349 31.7493H13.8651C11.9317 31.7493 10.2989 30.27 10.0598 28.3034L9.98804 27.7145C9.56789 24.3037 9.56789 20.8542 9.98804 17.4434L10.0598 16.8545C10.2989 14.8879 11.9317 13.4121 13.8651 13.4121H30.1349C32.0683 13.4121 33.7011 14.8879 33.9402 16.8545L34.012 17.4434C34.4321 20.8542 34.4321 24.3037 34.012 27.7145Z" fill="white"/>
</g>
<defs>
<clipPath id="clip0_148_3161">
<rect width="44" height="45.1579" fill="white"/>
</clipPath>
</defs>
</svg>
